# xmcd
#
# Track frame offsets:
#	183
#	11053
#	23988
#	38260
#	48210
#	58538
#	73858
#	84245
#	93675
#	104978
#	115103
#	126525
#
# Disc length: 1862 seconds
#
# Revision: 1
# Processed by: cddbd v1.5.1PL0 Copyright (c) Steve Scherf et al.
# Submitted via: audiograbber 1.83.01
#
DISCID=a107440c
DTITLE=Jim Reeves - De hits van Jim Reeves
DYEAR=1900
DGENRE=
TTITLE0=He'll have to go
TTITLE1=Four walls
TTITLE2=Guilty
TTITLE3=Blue boy
TTITLE4=I'm gettin' better
TTITLE5=The blizzard
TTITLE6=Am I losing you
TTITLE7=Billy Bayou
TTITLE8=Anna Marie
TTITLE9=Stand at your window
TTITLE10=Adios amigo
TTITLE11=Danny boy
EXTD=
EXTT0=
EXTT1=
EXTT2=
EXTT3=
EXTT4=
EXTT5=
EXTT6=
EXTT7=
EXTT8=
EXTT9=
EXTT10=
EXTT11=
PLAYORDER=
